# xmcd
#
# Track frame offsets: 
#        150
#        50300
#        91466
#        120419
#        142864
#        181478
#        223734
#        253740
#
# Disc length: 3721 seconds
#
# Revision: 2
# Processed by: cddbd v1.5.2PL0 Copyright (c) Steve Scherf et al.
# Submitted via: ExactAudioCopy v1.0b3
#
DISCID=6d0e8708
DTITLE=Verneri Pohjola - Ancient History
DYEAR=2012
DGENRE=Jazz
TTITLE0=Deism
TTITLE1=But This One Goes In Four
TTITLE2=Ancient History
TTITLE3=Hyperballad
TTITLE4=White View
TTITLE5=Cheap Taxi Adventure
TTITLE6=Thunderous Thoughts
TTITLE7=Ballad 18
EXTD=YEAR: 2011
EXTT0=
EXTT1=
EXTT2=
EXTT3=
EXTT4=
EXTT5=
EXTT6=
EXTT7=
PLAYORDER=
